<?xml version="1.0" encoding="UTF-8" standalone="no"?>
<!-- Created with Inkscape (http://www.inkscape.org/) -->

<svg
   xmlns:dc="http://purl.org/dc/elements/1.1/"
   xmlns:cc="http://creativecommons.org/ns#"
   xmlns:rdf="http://www.w3.org/1999/02/22-rdf-syntax-ns#"
   xmlns:svg="http://www.w3.org/2000/svg"
   xmlns="http://www.w3.org/2000/svg"
   xmlns:sodipodi="http://sodipodi.sourceforge.net/DTD/sodipodi-0.dtd"
   xmlns:inkscape="http://www.inkscape.org/namespaces/inkscape"
   width="16"
   height="16"
   id="svg2"
   version="1.1"
   inkscape:version="0.48.3.1 r9886"
   sodipodi:docname="saml-button.svg"
   inkscape:export-filename="/home/ica/olavmo/samltrace/chrome/samltrace/content/saml.png"
   inkscape:export-xdpi="97.919998"
   inkscape:export-ydpi="97.919998">
  <defs
     id="defs4">
    <linearGradient
       id="linearGradient3596">
      <stop
         style="stop-color:#ec7400;stop-opacity:1;"
         offset="0"
         id="stop3598" />
      <stop
         style="stop-color:#ffffff;stop-opacity:1;"
         offset="1"
         id="stop3600" />
    </linearGradient>
    <inkscape:perspective
       sodipodi:type="inkscape:persp3d"
       inkscape:vp_x="0 : 526.18109 : 1"
       inkscape:vp_y="0 : 1000 : 0"
       inkscape:vp_z="744.09448 : 526.18109 : 1"
       inkscape:persp3d-origin="372.04724 : 350.78739 : 1"
       id="perspective10" />
  </defs>
  <sodipodi:namedview
     id="base"
     pagecolor="#ffffff"
     bordercolor="#666666"
     borderopacity="1.0"
     inkscape:pageopacity="0.0"
     inkscape:pageshadow="2"
     inkscape:zoom="11.2"
     inkscape:cx="-17.658814"
     inkscape:cy="13.21004"
     inkscape:document-units="px"
     inkscape:current-layer="layer1"
     showgrid="false"
     inkscape:window-width="2560"
     inkscape:window-height="1385"
     inkscape:window-x="0"
     inkscape:window-y="0"
     inkscape:window-maximized="1"
     fit-margin-top="0"
     fit-margin-left="0"
     fit-margin-right="0"
     fit-margin-bottom="0" />
  <metadata
     id="metadata7">
    <rdf:RDF>
      <cc:Work
         rdf:about="">
        <dc:format>image/svg+xml</dc:format>
        <dc:type
           rdf:resource="http://purl.org/dc/dcmitype/StillImage" />
        <dc:title />
      </cc:Work>
    </rdf:RDF>
  </metadata>
  <g
     inkscape:label="Layer 1"
     inkscape:groupmode="layer"
     id="layer1"
     transform="translate(-0.17857143,-1037.2551)">
    <path
       style="fill:#797c80;fill-opacity:1;stroke:none"
       d="m 1.8687123,1042.4382 c -0.93323302,0 -1.69014087,0.7569 -1.69014087,1.6901 l 0,2.2535 c 0,0.9333 0.75690785,1.6902 1.69014087,1.6902 l 12.6197187,0 c 0.933232,0 1.69014,-0.7569 1.69014,-1.6902 l 0,-2.2535 c 0,-0.9332 -0.756908,-1.6901 -1.69014,-1.6901 l -12.6197187,0 z m 0.7211267,1.0817 c 0.4287538,0 0.7559835,0.076 0.9802818,0.2366 0.2258187,0.1587 0.3516401,0.4183 0.3943662,0.7662 l -0.9690141,0.056 c -0.025941,-0.151 -0.085096,-0.2581 -0.1690141,-0.3267 -0.082396,-0.069 -0.1915511,-0.1127 -0.3380282,-0.1127 -0.1205414,0 -0.2206587,0.027 -0.2816901,0.079 -0.061034,0.05 -0.090142,0.1183 -0.090141,0.1915 -1.3e-6,0.053 0.02852,0.1038 0.078873,0.1465 0.048825,0.044 0.1661958,0.086 0.3492958,0.1239 0.4531669,0.098 0.7737065,0.1923 0.9690142,0.293 0.1968281,0.099 0.3396683,0.2238 0.428169,0.3718 0.09002,0.148 0.135208,0.3127 0.1352112,0.4958 -3.2e-6,0.2151 -0.061271,0.4156 -0.1802817,0.5972 -0.1190169,0.1815 -0.2821623,0.3223 -0.4957746,0.4169 -0.2136173,0.093 -0.4862697,0.1352 -0.8112677,0.1352 -0.5706584,0 -0.963381,-0.1071 -1.1830985,-0.3268 -0.2197187,-0.2197 -0.3428406,-0.5063 -0.371831,-0.845 l 0.9802817,-0.056 c 0.021361,0.1602 0.0696,0.2767 0.1352112,0.3606 0.1068061,0.1358 0.2636135,0.2028 0.4619719,0.2028 0.1480028,0 0.2586835,-0.033 0.3380282,-0.1014 0.080866,-0.07 0.1239414,-0.1451 0.1239436,-0.2366 -2.2e-6,-0.087 -0.036387,-0.168 -0.112676,-0.2367 -0.076293,-0.069 -0.2631474,-0.1305 -0.5408451,-0.1915 -0.454696,-0.1022 -0.7752356,-0.2363 -0.9690141,-0.4056 -0.1953056,-0.1694 -0.2929581,-0.3911 -0.2929578,-0.6536 -3e-7,-0.1724 0.0473,-0.3319 0.1464789,-0.4845 0.1007037,-0.1541 0.2508209,-0.2736 0.4507042,-0.3605 0.2014074,-0.089 0.4843883,-0.1352 0.8338028,-0.1352 z m 2.9295778,0.056 1.138028,0 1.261972,3.3577 -1.092958,0 -0.1577465,-0.5521 -1.1830985,0 -0.1577465,0.5521 -1.059155,0 1.2507045,-3.3577 z m 2.7154925,0 1.3633805,0 0.5295772,2.0394 0.51831,-2.0394 1.36338,0 0,3.3577 -0.84507,0 0,-2.5577 -0.664789,2.5577 -0.7661967,0 -0.6535215,-2.5577 0,2.5577 -0.8450705,0 0,-3.3577 z m 4.4281697,0 1.036619,0 0,2.5352 1.622535,0 0,0.8225 -2.659154,0 0,-3.3577 z m -6.5802822,0.8676 -0.371831,1.2056 0.743662,0 -0.371831,-1.2056 z"
       id="rect2820"
       inkscape:connector-curvature="0" />
  </g>
</svg>
