<?xml version="1.0" encoding="UTF-8"?>
<!-- Created with Inkscape (http://www.inkscape.org/) -->
<svg width="574.36" height="443.77" version="1.1" viewBox="0 0 574.36 443.77" xml:space="preserve" xmlns="http://www.w3.org/2000/svg" xmlns:cc="http://creativecommons.org/ns#" xmlns:dc="http://purl.org/dc/elements/1.1/" xmlns:rdf="http://www.w3.org/1999/02/22-rdf-syntax-ns#"><metadata><rdf:RDF><cc:Work rdf:about=""><dc:format>image/svg+xml</dc:format><dc:type rdf:resource="http://purl.org/dc/dcmitype/StillImage"/><dc:title/></cc:Work></rdf:RDF></metadata><defs><clipPath id="clipPath18"><path d="M 0,595.28 H 841.89 V 0 H 0 Z"/></clipPath></defs><g transform="matrix(1.3333 0 0 -1.3333 -286.23 596.18)"><g clip-path="url(#clipPath18)"><g transform="translate(568.07 302.04)"><path d="m0 0c0-80.134-64.963-145.1-145.1-145.1-80.133 0-145.1 64.963-145.1 145.1s64.963 145.1 145.1 145.1c80.135 0 145.1-64.963 145.1-145.1" fill="#343433"/></g><g transform="translate(365 267.72)"><path d="m0 0c0-10.318-8.364-18.684-18.683-18.684-10.32 0-18.683 8.366-18.683 18.684s8.363 18.684 18.683 18.684c10.319 0 18.683-8.366 18.683-18.684" fill="#d6d6d6"/></g><g transform="translate(365 267.72)"><path d="m0 0c0-10.318-8.364-18.684-18.683-18.684-10.32 0-18.683 8.366-18.683 18.684s8.363 18.684 18.683 18.684c10.319 0 18.683-8.366 18.683-18.684z" fill="none" stroke="#d6d6d6" stroke-miterlimit="10" stroke-width="16.6"/></g><g transform="translate(464.64 239.69)"><path d="m0 0c0-10.318-8.363-18.683-18.683-18.683-10.319 0-18.683 8.365-18.683 18.683 0 10.319 8.364 18.685 18.683 18.685 10.32 0 18.683-8.366 18.683-18.685" fill="#d6d6d6"/></g><g transform="translate(464.64 239.69)"><path d="m0 0c0-10.318-8.363-18.683-18.683-18.683-10.319 0-18.683 8.365-18.683 18.683 0 10.319 8.364 18.685 18.683 18.685 10.32 0 18.683-8.366 18.683-18.685z" fill="none" stroke="#d6d6d6" stroke-miterlimit="10" stroke-width="16.6"/></g><g transform="translate(502.01 351.79)"><path d="m0 0c0-10.319-8.365-18.684-18.684-18.684s-18.684 8.365-18.684 18.684 8.365 18.684 18.684 18.684 18.684-8.365 18.684-18.684" fill="#d6d6d6"/></g><g transform="translate(502.01 351.79)"><path d="m0 0c0-10.319-8.365-18.684-18.684-18.684s-18.684 8.365-18.684 18.684 8.365 18.684 18.684 18.684 18.684-8.365 18.684-18.684z" fill="none" stroke="#d6d6d6" stroke-miterlimit="10" stroke-width="16.6"/></g><g transform="translate(598.54 365.61)"><path d="m0 0-108.1-9.342" fill="#d6d6d6" stroke="#d6d6d6" stroke-miterlimit="10" stroke-width="11.62"/></g><g transform="translate(477.1 337.59)"><path d="m0 0-24.023-93.418" fill="#d6d6d6" stroke="#d6d6d6" stroke-miterlimit="10" stroke-width="11.62"/></g><g transform="translate(434.39 244.17)"><path d="m0 0-69.396 18.685" fill="#d6d6d6" stroke="#d6d6d6" stroke-miterlimit="10" stroke-width="11.62"/></g><g transform="translate(243.55 262.85)"><path d="m0 0 84.076 4.862" fill="#d6d6d6" stroke="#d6d6d6" stroke-miterlimit="10" stroke-width="11.62"/></g><g transform="translate(588.83 390.94)"><path d="m0 0c-11.839 0-21.436-9.597-21.436-21.436 0-11.838 9.597-21.436 21.436-21.436s21.436 9.598 21.436 21.436c0 11.839-9.597 21.436-21.436 21.436" fill="#343433"/></g><g transform="translate(588.83 390.94)"><path d="m0 0c-11.839 0-21.436-9.597-21.436-21.436 0-11.838 9.597-21.436 21.436-21.436s21.436 9.598 21.436 21.436c0 11.839-9.597 21.436-21.436 21.436z" fill="none" stroke="#343433" stroke-miterlimit="10" stroke-width="16.6"/></g><g transform="translate(265.84 258.26)"><path d="m0 0c0-11.839-9.597-21.436-21.436-21.436-11.838 0-21.435 9.597-21.435 21.436s9.597 21.436 21.435 21.436c11.839 0 21.436-9.597 21.436-21.436" fill="#343433"/></g><g transform="translate(265.84 258.26)"><path d="m0 0c0-11.839-9.597-21.436-21.436-21.436-11.838 0-21.435 9.597-21.435 21.436s9.597 21.436 21.435 21.436c11.839 0 21.436-9.597 21.436-21.436z" fill="none" stroke="#343433" stroke-miterlimit="10" stroke-width="16.6"/></g><g transform="translate(627.9 177.98)"><path d="m0 0c-9.164 7.609-37.938 31.501-62.708 52.07-7.125-14.332-16.545-27.551-28.004-39.011-4.462-4.462-9.193-8.611-14.15-12.441l68.769-56.68s21.781-12.452 39.543 9.836c13.877 17.417 13.67 32.01-3.45 46.226" fill="#343433"/></g><g transform="translate(627.9 177.98)"><path d="m0 0c-9.164 7.609-37.938 31.501-62.708 52.07-7.125-14.332-16.545-27.551-28.004-39.011-4.462-4.462-9.193-8.611-14.15-12.441l68.769-56.68s21.781-12.452 39.543 9.836c13.877 17.417 13.67 32.01-3.45 46.226z" fill="none" stroke="#343433" stroke-miterlimit="10" stroke-width="8.3"/></g><g transform="translate(555.13 302.04)"><path d="m0 0c0-72.985-59.169-132.15-132.16-132.15s-132.16 59.169-132.16 132.15 59.169 132.15 132.16 132.15 132.16-59.169 132.16-132.15z" fill="none" stroke="#d6d6d6" stroke-miterlimit="10" stroke-width="2.97"/></g></g></g></svg>
